<?xml version="1.0" encoding="iso-8859-1"?>
<!-- Generator: Adobe Illustrator 19.0.0, SVG Export Plug-In . SVG Version: 6.00 Build 0)  -->
<svg version="1.1" id="Capa_1" xmlns="http://www.w3.org/2000/svg" xmlns:xlink="http://www.w3.org/1999/xlink" x="0px" y="0px"
	 viewBox="0 0 512 512" style="enable-background:new 0 0 512 512;" xml:space="preserve">
<path style="fill:#3A426B;" d="M383.76,328.26l32.05-250.3l0.17-1.32c0.01-0.21,0.02-0.43,0.02-0.64
	c0-18.411-49.763-33.916-117.5-38.571C230.763,42.084,181,57.589,181,76c0,0.21,0.01,0.43,0.02,0.64l0.17,1.32l32.05,250.3
	C145.81,342.43,95,367.47,95,396c0,39.369,90.088,72.099,203.5,78.76C411.912,468.099,502,435.369,502,396
	C502,367.47,451.19,342.43,383.76,328.26z"/>
<path style="fill:#FFFFFF;" d="M383.2,332.63l-6.31,49.29c-0.55,8.68-6.49,15.98-14.91,18.12C339.22,405.8,311.16,416,256,416
	s-83.22-10.2-105.98-15.96c-8.42-2.14-14.36-9.44-14.91-18.12l-6.31-49.29l1.34-0.17C155.24,346.34,191.11,356,256,356
	s100.76-9.66,125.86-23.54L383.2,332.63z"/>
<path style="fill:#7EC2DB;" d="M381.86,332.46C356.76,346.34,320.89,356,256,356c-17.44,0-32.767-0.704-46.369-1.993
	c-0.178,3.39-0.024,6.816,0.183,10.134c0.504,8.086,1.347,16.165,2.714,24.151c1.503,8.789,3.577,17.485,6.298,25.968
	c10.88,1.078,23.147,1.74,37.174,1.74c55.16,0,83.22-10.2,105.98-15.96c8.42-2.14,14.36-9.44,14.91-18.12l6.31-49.29L381.86,332.46z
	"/>
<path d="M346,286c-5.52,0-10,4.48-10,10s4.48,10,10,10s10-4.48,10-10S351.52,286,346,286z"/>
<path d="M368.021,136.251c-5.477-0.709-10.488,3.17-11.189,8.648l-14.14,110.38c-0.765,5.971,3.884,11.271,9.932,11.271
	c4.957,0,9.26-3.684,9.906-8.73l14.14-110.38C377.371,141.963,373.499,136.953,368.021,136.251z"/>
<path d="M394.841,320.464C426.41,73.064,426,79.197,426,76c0-16.175-18.315-28.954-54.436-37.985C340.574,30.267,299.532,26,256,26
	s-84.574,4.267-115.564,12.015C104.315,47.046,86,59.825,86,76c0,1.45-2.021-14.537,31.159,244.464C75.874,329.987,0,353.308,0,396
	c0,26.322,27.742,49.174,80.227,66.086C128.088,477.507,190.512,486,256,486s127.912-8.493,175.773-23.914
	C484.258,445.174,512,422.322,512,396C512,353.308,436.125,329.987,394.841,320.464z M374.06,325.288
	C346.777,339.406,309.118,346,256,346s-90.777-6.594-118.06-20.712l-28.405-221.835c8.725,4.2,19.899,7.921,33.609,11.196
	C173.786,121.969,213.866,126,256,126s82.214-4.031,112.855-11.352c13.71-3.275,24.885-6.996,33.61-11.196L374.06,325.288z M256,366
	c49.886,0,86.307-5.397,115.06-17.285l-4.089,31.936c-0.027,0.211-0.047,0.424-0.061,0.637c-0.277,4.366-3.248,8.008-7.383,9.059
	C336.211,396.247,309.616,406,256,406c-53.561,0-80.123-9.727-103.517-15.652c-4.145-1.053-7.116-4.694-7.393-9.061
	c-0.014-0.213-0.034-0.426-0.061-0.637l-4.089-31.936C169.694,360.603,206.114,366,256,366z M145.287,57.418
	C174.737,50.055,214.055,46,256,46s81.263,4.055,110.713,11.418c31.966,7.992,39.137,16.66,39.28,18.479l-0.039,0.302
	c-0.728,2.641-9.655,11.33-41.747,18.997C335.044,102.163,296.615,106,256,106s-79.044-3.837-108.208-10.804
	c-31.986-7.642-40.96-16.299-41.745-18.985l-0.038-0.294C106.206,74.012,113.443,65.379,145.287,57.418z M425.639,443.049
	C380.373,457.635,318.542,466,256,466s-124.373-8.365-169.639-22.951C44.808,429.66,20,412.072,20,396
	c0-9.522,10.173-20.351,28.645-30.488c17.773-9.755,42.194-18.364,71.067-25.11l5.442,42.503
	c0.965,12.902,9.929,23.658,22.413,26.83C170.033,415.422,199.598,426,256,426c55.196,0,83.288-9.903,108.443-16.268
	c12.474-3.17,21.438-13.926,22.403-26.828l5.442-42.503c28.873,6.746,53.294,15.356,71.067,25.11
	C481.827,375.649,492,386.478,492,396C492,412.072,467.192,429.66,425.639,443.049z"/>
<g>
</g>
<g>
</g>
<g>
</g>
<g>
</g>
<g>
</g>
<g>
</g>
<g>
</g>
<g>
</g>
<g>
</g>
<g>
</g>
<g>
</g>
<g>
</g>
<g>
</g>
<g>
</g>
<g>
</g>
</svg>
